<?xml version="1.0" encoding="utf-8"?>
<!-- Generator: Adobe Illustrator 28.2.0, SVG Export Plug-In . SVG Version: 6.00 Build 0)  -->
<svg version="1.0" id="katman_1" xmlns="http://www.w3.org/2000/svg" xmlns:xlink="http://www.w3.org/1999/xlink" x="0px" y="0px"
	 viewBox="0 0 1190.6 841.9" style="enable-background:new 0 0 1190.6 841.9;" xml:space="preserve">
<style type="text/css">
	.st0{fill:#010202;}
	.st1{fill:#F6A117;}
	.st2{opacity:0.9;fill:#FFD101;enable-background:new    ;}
	.st3{opacity:0.5;fill:#FFFFFF;enable-background:new    ;}
	.st4{fill:#FFFFFF;}
</style>
<path class="st0" d="M422.4,455.3h30.7v14.5h-47.3v-99.6h16.5V455.3z M511.1,412.4c-2-3.4-5.1-6.1-8.8-7.8c-3.7-2-7.8-2.7-11.8-2.7
	c-5.1,0-9.8,1-13.8,2.7c-4.1,1.7-7.8,4.4-10.8,7.8c-3,3.4-5.4,7.1-7.1,11.1c-1.7,4.4-2.4,8.8-2.4,13.2c0,4.7,0.7,9.1,2.4,13.5
	c1.7,4.1,4.1,7.8,7.1,11.1c3,3.4,6.8,5.7,10.8,7.8c4.1,1.7,8.8,2.7,13.8,2.7c4.1,0,7.8-1,11.8-2.7c3.7-2,6.8-4.4,8.8-7.8v9.1h15.5
	v-66.8h-15.5C511.1,403.6,511.1,412.4,511.1,412.4z M509.8,444.8c-1,2.7-2.4,4.7-4.1,6.8s-3.7,3.4-6.1,4.4s-5.1,1.7-8.1,1.7
	s-5.7-0.7-8.1-1.7c-2.4-1-4.4-2.7-6.1-4.4c-1.7-2-3-4.1-4.1-6.8c-1-2.7-1.4-5.4-1.4-8.1c0-2.7,0.3-5.4,1.4-8.1
	c1-2.7,2.4-4.7,4.1-6.8s3.7-3.4,6.1-4.4c2.4-1,5.1-1.7,8.1-1.7s5.7,0.7,8.1,1.7c2.4,1,4.4,2.7,6.1,4.4c1.7,2,3,4.1,4.1,6.8
	c1,2.7,1.4,5.4,1.4,8.1C511.1,439.4,510.8,442.1,509.8,444.8z M637.7,412.4c-2-3.4-5.1-6.1-8.8-7.8c-3.7-2-7.8-2.7-11.8-2.7
	c-5.1,0-9.8,1-13.8,2.7c-4.1,1.7-7.8,4.4-10.8,7.8c-3,3.4-5.4,7.1-7.1,11.1c-1.7,4.4-2.4,8.8-2.4,13.2c0,4.7,0.7,9.1,2.4,13.5
	c1.7,4.1,4.1,7.8,7.1,11.1c3,3.4,6.8,5.7,10.8,7.8c4.1,1.7,8.8,2.7,13.8,2.7c4.1,0,7.8-1,11.8-2.7c3.7-2,6.8-4.4,8.8-7.8v9.1h15.5
	v-66.8h-15.5C637.7,403.6,637.7,412.4,637.7,412.4z M636.4,444.8c-1,2.7-2.4,4.7-4.1,6.8c-1.7,2-3.7,3.4-6.1,4.4s-5.1,1.7-8.1,1.7
	s-5.7-0.7-8.1-1.7c-2.4-1-4.4-2.7-6.1-4.4c-1.7-2-3-4.1-4.1-6.8c-1-2.7-1.4-5.4-1.4-8.1c0-2.7,0.3-5.4,1.4-8.1
	c1-2.7,2.4-4.7,4.1-6.8c1.7-2,3.7-3.4,6.1-4.4c2.4-1,5.1-1.7,8.1-1.7s5.7,0.7,8.1,1.7s4.4,2.7,6.1,4.4c1.7,2,3,4.1,4.1,6.8
	c1,2.7,1.4,5.4,1.4,8.1C637.7,439.4,637.4,442.1,636.4,444.8z M808.8,370.2h15.5v99.6h-15.5V370.2z M539.1,403.6h42.2v15.2h-26.7v51
	h-15.5V403.6z M731.5,403.6l-25.3,66.2h-19.6L661,403.6h15.9l19.6,50.6l19.6-50.6C716,403.6,731.5,403.6,731.5,403.6z M765.6,402
	c-19.2,0-34.1,15.5-34.1,34.8c0,21.3,14.5,34.8,36.1,34.8c12.2,0,19.9-4.7,29-14.5l-10.5-8.1c0,0-8.1,10.5-19.9,10.5
	c-13.8,0-19.6-11.1-19.6-16.9h51.6C801.4,420.5,786.9,402,765.6,402z M747.1,431c0-1.4,2-16.9,18.6-16.9s18.6,15.5,18.9,16.9H747.1z
	 M941.2,387.1c-5.1-4.4-12.2-6.8-21.3-6.8h-34.8v90.5h7.8v-40.5h26.7c8.8,0,15.9-2.4,21.3-6.8c5.1-4.4,7.8-10.5,7.8-18.2
	C948.9,397.6,946.2,391.5,941.2,387.1z M935.4,418.5c-3.7,3-9.1,4.7-16.2,4.7h-26.3v-36.1h26.3c7.1,0,12.5,1.7,16.2,4.7
	c3.7,3,5.4,7.4,5.4,13.2C940.8,411.1,939.1,415.5,935.4,418.5z M963.1,407h7.4v63.5h-7.4V407z M961.7,381h10.1v9.8h-10.1V381z
	 M1044.1,430.3v40.5h-7.8v-40.2c0-6.4-1.4-11.1-3.7-13.8c-2.7-3-6.8-4.4-12.2-4.4c-6.4,0-11.5,2-15.2,5.7c-3.7,4.1-5.7,9.1-5.7,15.9
	v36.8h-7.4v-45.9c0-6.8-0.3-12.5-1-17.6h7.4l1,11.8c2-4.4,4.7-7.4,8.8-9.8c3.7-2.4,8.4-3.4,13.5-3.4
	C1036.7,405.7,1044.1,413.8,1044.1,430.3z M1075.8,413.4v37.8c0,5.1,1,8.4,3,10.5c2,2,4.7,3,8.4,3c2.4,0,4.7-0.3,6.8-1v7.1
	c-2.7,0.7-5.4,1-8.1,1c-5.4,0-9.8-1.7-13.2-4.7c-3.4-3-4.7-7.8-4.7-14.2v-39.5h-12.5v-6.1h12.5v-16.9l7.8-3v19.9h18.6v6.1
	C1094.4,413.4,1075.8,413.4,1075.8,413.4z"/>
<circle id="b" class="st0" cx="203.3" cy="420.9" r="108"/>
<path class="st1" d="M95.3,312.8h216v216h-216V312.8z"/>
<path class="st2" d="M247.2,528.9h-87.8l-10.1-141.8h108L247.2,528.9z"/>
<path class="st3" d="M189.8,528.9h-30.4l-10.1-141.8h37.1L189.8,528.9z"/>
<path class="st4" d="M149.3,360.1h108v27h-108V360.1z"/>
</svg>
