<svg width="115" height="42" viewBox="0 0 115 42" fill="none" xmlns="http://www.w3.org/2000/svg">
<g clip-path="url(#clip0_2005_21)">
<mask id="mask0_2005_21" style="mask-type:luminance" maskUnits="userSpaceOnUse" x="0" y="0" width="115" height="42">
<path d="M115 0H0V42H115V0Z" fill="white"/>
</mask>
<g mask="url(#mask0_2005_21)">
<path d="M35.7587 9.3563L20.2591 0.407611C19.7763 0.139032 19.2326 -0.00195312 18.6797 -0.00195312C18.1268 -0.00195312 17.5831 0.139032 17.1002 0.407611L1.60069 9.3563C1.11684 9.63101 0.714123 10.0281 0.433137 10.5075C0.15215 10.9869 0.00281933 11.5318 0.000191863 12.0871V29.9425C-0.00603838 30.4996 0.139571 31.0479 0.421465 31.5289C0.703359 32.0099 1.11095 32.4054 1.60069 32.6733L17.1002 41.58C17.5885 41.8554 18.1399 42.0001 18.7007 42.0001C19.2616 42.0001 19.813 41.8554 20.3012 41.58L35.8008 32.6733C36.2847 32.3986 36.6874 32.0015 36.9684 31.5221C37.2493 31.0426 37.3987 30.4978 37.4013 29.9425V12.0871C37.3726 11.5326 37.2079 10.9935 36.9214 10.5174C36.635 10.0412 36.2357 9.64249 35.7587 9.3563ZM17.9426 1.92007C18.165 1.80946 18.4101 1.75189 18.6586 1.75189C18.9071 1.75189 19.1522 1.80946 19.3746 1.92007L34.7057 10.7427L26.9559 15.2381C26.0249 13.9034 24.7841 12.8132 23.3393 12.0603C21.8946 11.3074 20.2887 10.9141 18.6586 10.9141C17.0286 10.9141 15.4227 11.3074 13.9779 12.0603C12.5332 12.8132 11.2923 13.9034 10.3613 15.2381L2.61153 10.7427L17.9426 1.92007ZM18.6586 29.3123C17.0092 29.3123 15.3969 28.8244 14.0255 27.9104C12.6541 26.9963 11.5852 25.6971 10.954 24.1771C10.3228 22.6571 10.1577 20.9846 10.4794 19.3709C10.8012 17.7573 11.5955 16.2751 12.7618 15.1117C13.928 13.9484 15.414 13.1561 17.0317 12.8351C18.6494 12.5142 20.3262 12.6789 21.85 13.3085C23.3738 13.9381 24.6763 15.0043 25.5926 16.3723C26.509 17.7402 26.9981 19.3485 26.9981 20.9938C26.9925 23.1983 26.1121 25.3109 24.5494 26.8697C22.9866 28.4285 20.8687 29.3067 18.6586 29.3123ZM2.44306 31.1608C2.22946 31.0355 2.05155 30.8578 1.92622 30.6445C1.8009 30.4313 1.73234 30.1896 1.72705 29.9425V12.2972L9.47683 16.7505C8.85442 18.0799 8.52413 19.5267 8.5081 20.9938C8.51946 23.5116 9.47052 25.935 11.1758 27.7914C12.8811 29.6477 15.2185 30.804 17.732 31.0348V39.9835L2.44306 31.1608ZM34.8742 31.1608L19.5431 39.9835V31.0348C22.0606 30.8142 24.404 29.661 26.1114 27.8024C27.8187 25.9438 28.7662 23.5147 28.767 20.9938C28.7762 19.5238 28.4446 18.0716 27.7983 16.7505L35.5481 12.2972V29.9425C35.5603 30.1879 35.5037 30.4319 35.3846 30.6471C35.2656 30.8623 35.0889 31.0402 34.8742 31.1608Z" fill="#0053E2"/>
<path d="M48.0996 15.1958C48.7714 14.5229 49.5733 13.9934 50.4567 13.6395C51.3401 13.2856 52.2864 13.1147 53.2381 13.1371C54.1815 13.1125 55.1202 13.279 55.9973 13.6266C56.8743 13.9741 57.6717 14.4955 58.341 15.1592C59.0103 15.8229 59.5377 16.6152 59.8913 17.488C60.2449 18.3608 60.4173 19.2961 60.3982 20.2373C60.4244 21.196 60.2592 22.1503 59.9121 23.0447C59.565 23.9391 59.043 24.7556 58.3765 25.4468C57.713 26.1334 56.9135 26.6747 56.0289 27.0364C55.1442 27.398 54.1938 27.5721 53.2381 27.5475C52.2811 27.5816 51.3279 27.4119 50.4419 27.0497C49.5558 26.6874 48.7574 26.141 48.0996 25.4468C47.4331 24.7556 46.9111 23.9391 46.5641 23.0447C46.217 22.1503 46.0517 21.196 46.078 20.2373C46.0326 19.3015 46.1896 18.3668 46.5384 17.4969C46.8873 16.627 47.4197 15.8422 48.0996 15.1958ZM49.5317 24.1865C50.0077 24.6905 50.5821 25.0922 51.2195 25.3667C51.8569 25.6412 52.5438 25.7828 53.2381 25.7828C53.9324 25.7828 54.6193 25.6412 55.2567 25.3667C55.8941 25.0922 56.4684 24.6905 56.9445 24.1865C57.9326 23.1117 58.4615 21.6949 58.4186 20.2373C58.4359 19.5411 58.3145 18.8484 58.0614 18.1994C57.8084 17.5503 57.4287 16.9578 56.9445 16.4561C56.4687 15.9574 55.8925 15.5648 55.2536 15.3041C54.6148 15.0434 53.9279 14.9206 53.2381 14.9437C52.5493 14.9286 51.8648 15.0551 51.2272 15.3153C50.5895 15.5755 50.0124 15.9639 49.5317 16.4561C49.0474 16.9578 48.6678 17.5503 48.4148 18.1994C48.1617 18.8484 48.0403 19.5411 48.0575 20.2373C48.0222 21.6937 48.5501 23.1078 49.5317 24.1865ZM62.7147 26.6652C62.703 26.7563 62.7124 26.8488 62.7422 26.9356C62.7719 27.0225 62.8212 27.1014 62.8863 27.1663C62.9513 27.2312 63.0304 27.2804 63.1175 27.31C63.2046 27.3397 63.2973 27.3491 63.3886 27.3374H64.0204C64.1117 27.3491 64.2044 27.3397 64.2915 27.31C64.3786 27.2804 64.4577 27.2312 64.5228 27.1663C64.5878 27.1014 64.6371 27.0225 64.6669 26.9356C64.6966 26.8488 64.706 26.7563 64.6943 26.6652V23.1782C64.6743 22.1739 64.937 21.1842 65.4524 20.3213C65.6587 19.9337 65.9686 19.6107 66.3478 19.3882C66.727 19.1657 67.1606 19.0524 67.6005 19.0609C67.6944 19.0771 67.7909 19.0713 67.8823 19.044C67.9736 19.0166 68.0573 18.9684 68.1268 18.9032C68.1962 18.838 68.2495 18.7576 68.2824 18.6683C68.3154 18.579 68.327 18.4833 68.3165 18.3887V17.8426C68.3295 17.7549 68.3224 17.6655 68.2959 17.5809C68.2694 17.4964 68.2241 17.4189 68.1633 17.3543C68.1026 17.2896 68.028 17.2395 67.9451 17.2077C67.8622 17.1758 67.7732 17.1631 67.6847 17.1704C66.2527 17.1704 65.0733 18.3467 64.61 19.8172H64.5679L64.61 19.0609V17.9266C64.6217 17.8355 64.6123 17.743 64.5826 17.6562C64.5529 17.5693 64.5036 17.4904 64.4385 17.4255C64.3734 17.3606 64.2943 17.3114 64.2073 17.2817C64.1202 17.2521 64.0274 17.2427 63.9362 17.2544H63.3886C63.2973 17.2427 63.2046 17.2521 63.1175 17.2817C63.0304 17.3114 62.9513 17.3606 62.8863 17.4255C62.8212 17.4904 62.7719 17.5693 62.7422 17.6562C62.7124 17.743 62.703 17.8355 62.7147 17.9266V26.6652ZM70.4224 18.5148C70.8273 18.0459 71.3329 17.6741 71.9017 17.4268C72.4704 17.1795 73.0876 17.0631 73.7076 17.0863C74.3047 17.0616 74.898 17.1918 75.4296 17.4643C75.9611 17.7367 76.4127 18.1421 76.7401 18.6408L76.8244 18.8089H76.8665C76.8302 18.5867 76.816 18.3616 76.8244 18.1366V14.0194C76.8127 13.9284 76.8221 13.8359 76.8518 13.749C76.8815 13.6621 76.9308 13.5832 76.9959 13.5183C77.061 13.4534 77.1401 13.4042 77.2272 13.3746C77.3143 13.3449 77.407 13.3356 77.4983 13.3472H78.13C78.2213 13.3356 78.3141 13.3449 78.4011 13.3746C78.4882 13.4042 78.5673 13.4534 78.6324 13.5183C78.6975 13.5832 78.7468 13.6621 78.7765 13.749C78.8062 13.8359 78.8156 13.9284 78.8039 14.0194V26.6652C78.8156 26.7563 78.8062 26.8488 78.7765 26.9356C78.7468 27.0225 78.6975 27.1014 78.6324 27.1663C78.5673 27.2312 78.4882 27.2804 78.4011 27.31C78.3141 27.3397 78.2213 27.3491 78.13 27.3374H77.6246C77.5368 27.3504 77.4471 27.3434 77.3623 27.3169C77.2776 27.2905 77.1999 27.2452 77.1351 27.1847C77.0703 27.1241 77.0201 27.0496 76.9881 26.967C76.9562 26.8843 76.9434 26.7955 76.9507 26.7072V26.119L76.9929 25.6149H76.9507C76.83 25.8603 76.674 26.0868 76.4874 26.2871C76.1359 26.6986 75.6958 27.0257 75.1999 27.2439C74.704 27.4622 74.1651 27.5659 73.6234 27.5475C73.0096 27.5704 72.3986 27.4538 71.8367 27.2063C71.2748 26.9588 70.7768 26.587 70.3803 26.119C69.5495 25.0383 69.1315 23.698 69.201 22.3379C69.0983 20.9541 69.536 19.5842 70.4224 18.5148ZM73.9603 25.909C75.6029 25.909 76.8665 24.6906 76.8665 22.2959C76.8934 21.409 76.627 20.538 76.1084 19.8172C75.8718 19.4821 75.5555 19.2107 75.188 19.0274C74.8205 18.8441 74.4132 18.7546 74.0024 18.7668C72.3598 18.7668 71.1384 20.1112 71.1384 22.3379C71.0963 24.4805 72.2756 25.909 73.9603 25.909ZM82.2576 18.5148C82.7299 18.0402 83.2955 17.6683 83.9189 17.4224C84.5423 17.1766 85.2099 17.0622 85.8798 17.0863C86.475 17.0492 87.0706 17.1515 87.6191 17.3849C88.1676 17.6184 88.6537 17.9765 89.0387 18.4307C89.8295 19.4005 90.2344 20.627 90.1759 21.8758C90.177 21.9644 90.1604 22.0523 90.1269 22.1343C90.0934 22.2164 90.0438 22.291 89.981 22.3536C89.9182 22.4162 89.8435 22.4657 89.7612 22.4991C89.679 22.5325 89.5908 22.5491 89.502 22.548H82.8052C82.8066 23.0102 82.9004 23.4676 83.0812 23.8932C83.262 24.3188 83.5262 24.7042 83.8581 25.0267C84.5194 25.6103 85.3761 25.9251 86.2589 25.909C87.1267 25.9217 87.9731 25.6403 88.6596 25.1107C88.729 25.0585 88.809 25.0223 88.894 25.0045C88.9791 24.9867 89.067 24.9879 89.1515 25.008C89.236 25.0281 89.315 25.0665 89.3829 25.1206C89.4508 25.1747 89.5058 25.243 89.5441 25.3208L89.7126 25.6149C89.7698 25.6822 89.8103 25.7621 89.8309 25.8479C89.8514 25.9338 89.8515 26.0233 89.831 26.1091C89.8105 26.195 89.77 26.2749 89.7129 26.3423C89.6557 26.4097 89.5835 26.4627 89.502 26.4972C88.5184 27.1937 87.3387 27.5614 86.1325 27.5475C85.4278 27.5686 84.7259 27.4495 84.0678 27.197C83.4097 26.9446 82.8087 26.5638 82.2998 26.077C81.8114 25.587 81.4288 25.0025 81.1752 24.3595C80.9217 23.7164 80.8028 23.0285 80.8256 22.3379C80.7924 20.9273 81.3052 19.5581 82.2576 18.5148ZM88.2806 21.2456C88.2385 19.5231 87.2276 18.5568 85.8377 18.5568C84.3636 18.5568 83.1421 19.5651 82.8894 21.2456H88.2806ZM92.3239 26.6652C92.3123 26.7563 92.3216 26.8488 92.3514 26.9356C92.3811 27.0225 92.4304 27.1014 92.4955 27.1663C92.5605 27.2312 92.6396 27.2804 92.7267 27.31C92.8138 27.3397 92.9066 27.3491 92.9978 27.3374H93.6296C93.7209 27.3491 93.8136 27.3397 93.9007 27.31C93.9878 27.2804 94.0669 27.2312 94.132 27.1663C94.197 27.1014 94.2463 27.0225 94.2761 26.9356C94.3058 26.8488 94.3152 26.7563 94.3035 26.6652V23.1782C94.2836 22.1739 94.5462 21.1842 95.0616 20.3213C95.2679 19.9337 95.5778 19.6107 95.957 19.3882C96.3362 19.1657 96.7698 19.0524 97.2097 19.0609C97.3036 19.0771 97.4001 19.0713 97.4915 19.044C97.5828 19.0166 97.6665 18.9684 97.736 18.9032C97.8054 18.838 97.8587 18.7576 97.8916 18.6683C97.9246 18.579 97.9362 18.4833 97.9257 18.3887V17.8426C97.9387 17.7549 97.9316 17.6655 97.9051 17.5809C97.8786 17.4964 97.8333 17.4189 97.7725 17.3543C97.7118 17.2896 97.6372 17.2395 97.5543 17.2077C97.4714 17.1758 97.3824 17.1631 97.2939 17.1704C95.8619 17.1704 94.6826 18.3467 94.2193 19.8172H94.1771L94.2193 19.0609V17.9266C94.2309 17.8355 94.2216 17.743 94.1918 17.6562C94.1621 17.5693 94.1128 17.4904 94.0477 17.4255C93.9827 17.3606 93.9035 17.3114 93.8165 17.2817C93.7294 17.2521 93.6366 17.2427 93.5454 17.2544H92.9978C92.9066 17.2427 92.8138 17.2521 92.7267 17.2817C92.6396 17.3114 92.5605 17.3606 92.4955 17.4255C92.4304 17.4904 92.3811 17.5693 92.3514 17.6562C92.3216 17.743 92.3123 17.8355 92.3239 17.9266V26.6652ZM99.3577 26.6652C99.346 26.7563 99.3554 26.8488 99.3851 26.9356C99.4149 27.0225 99.4642 27.1014 99.5292 27.1663C99.5943 27.2312 99.6734 27.2804 99.7605 27.31C99.8476 27.3397 99.9403 27.3491 100.032 27.3374H100.663C100.755 27.3491 100.847 27.3397 100.934 27.31C101.022 27.2804 101.101 27.2312 101.166 27.1663C101.231 27.1014 101.28 27.0225 101.31 26.9356C101.34 26.8488 101.349 26.7563 101.337 26.6652V23.1782C101.317 22.1739 101.58 21.1842 102.095 20.3213C102.302 19.9337 102.612 19.6107 102.991 19.3882C103.37 19.1657 103.804 19.0524 104.243 19.0609C104.337 19.0771 104.434 19.0713 104.525 19.044C104.617 19.0166 104.7 18.9684 104.77 18.9032C104.839 18.838 104.892 18.7576 104.925 18.6683C104.958 18.579 104.97 18.4833 104.959 18.3887V17.8426C104.972 17.7549 104.965 17.6655 104.939 17.5809C104.912 17.4964 104.867 17.4189 104.806 17.3543C104.746 17.2896 104.671 17.2395 104.588 17.2077C104.505 17.1758 104.416 17.1631 104.328 17.1704C102.896 17.1704 101.716 18.3467 101.253 19.8172H101.211L101.253 19.0609V17.9266C101.265 17.8355 101.255 17.743 101.226 17.6562C101.196 17.5693 101.147 17.4904 101.081 17.4255C101.016 17.3606 100.937 17.3114 100.85 17.2817C100.763 17.2521 100.67 17.2427 100.579 17.2544H100.032C99.9403 17.2427 99.8476 17.2521 99.7605 17.2817C99.6734 17.3114 99.5943 17.3606 99.5292 17.4255C99.4642 17.4904 99.4149 17.5693 99.3851 17.6562C99.3554 17.743 99.346 17.8355 99.3577 17.9266V26.6652ZM105.591 30.3203C105.543 30.3919 105.511 30.4739 105.5 30.5597C105.489 30.6455 105.498 30.7327 105.527 30.8144C105.556 30.896 105.603 30.9698 105.665 31.0299C105.728 31.0901 105.803 31.1348 105.886 31.1606C106.323 31.3615 106.795 31.4757 107.276 31.4967C108.001 31.4902 108.705 31.255 109.287 30.8248C109.87 30.3946 110.301 29.7915 110.519 29.1019L114.941 18.0526C114.992 17.9712 115.018 17.877 115.016 17.7813C115.014 17.6856 114.985 17.5924 114.932 17.5128C114.879 17.4332 114.804 17.3704 114.716 17.3321C114.628 17.2937 114.531 17.2813 114.436 17.2964H113.72C113.553 17.2782 113.386 17.3247 113.252 17.4264C113.119 17.5281 113.03 17.6772 113.004 17.8426L110.73 23.8924C110.581 24.2733 110.468 24.6671 110.393 25.0687H110.351L110.014 23.8504L107.655 17.8005C107.613 17.6464 107.519 17.5117 107.388 17.4197C107.257 17.3276 107.099 17.284 106.939 17.2964H106.181C106.086 17.2813 105.989 17.2937 105.901 17.3321C105.813 17.3704 105.738 17.4332 105.685 17.5128C105.632 17.5924 105.603 17.6856 105.601 17.7813C105.599 17.877 105.625 17.9712 105.675 18.0526L109.55 27.1694L109.045 28.3037C108.708 29.186 108.076 29.8162 107.318 29.8162C107.043 29.7811 106.774 29.7105 106.518 29.6061C106.449 29.577 106.375 29.5627 106.3 29.5641C106.226 29.5655 106.152 29.5826 106.084 29.6144C106.017 29.6461 105.957 29.6917 105.908 29.7482C105.859 29.8047 105.823 29.8708 105.802 29.9422L105.591 30.3203Z" fill="black"/>
</g>
</g>
<defs>
<clipPath id="clip0_2005_21">
<rect width="115" height="42" fill="white"/>
</clipPath>
</defs>
</svg>
